<?xml version="1.0" encoding="utf-8"?>
<!-- Generator: Adobe Illustrator 21.0.0, SVG Export Plug-In . SVG Version: 6.00 Build 0)  -->
<svg version="1.1" id="Layer_1" xmlns="http://www.w3.org/2000/svg" xmlns:xlink="http://www.w3.org/1999/xlink" x="0px" y="0px"
	 viewBox="0 0 408.2 133" style="enable-background:new 0 0 408.2 133;" xml:space="preserve">
<style type="text/css">
	.st0{fill:#ffffff;}
</style>
<g>
	<path class="st0" d="M35.4,19.8L18,37.2c-5.6,5.6-5.6,14.6,0,20.2l17.4,17.4c5.5,5.5,5.5,14.3,0,19.8l0,0L8.4,67.6
		c-11.2-11.2-11.2-29.5,0-40.7L35.4,0l0,0C40.8,5.5,40.8,14.3,35.4,19.8z"/>
	<path class="st0" d="M35.6,113.2l17.4-17.4c5.6-5.6,5.6-14.6,0-20.2L35.6,58.3c-5.5-5.5-5.5-14.3,0-19.8l0,0l26.9,26.9
		c11.2,11.2,11.2,29.5,0,40.7L35.6,133h0C30.1,127.5,30.1,118.7,35.6,113.2z"/>
	<g>
		<path class="st0" d="M249.9,49.9L249.9,49.9c-16.3,0-27,11.2-27.1,28.4v23.1c0,2.3,1.1,5,6.2,5c4.9,0,5.9-2.7,5.9-5V78.3
			c0-11.5,5.7-18.6,14.9-18.6l0.1,0c9.2,0,14.9,7.1,14.9,18.6v23.1c0,2.3,1,5,5.9,5c5.1,0,6.2-2.7,6.2-5V78.3
			C276.9,61.1,266.2,49.9,249.9,49.9z"/>
		<path class="st0" d="M403.4,49.9l-0.3,0c-16.3,0-27,11.2-27.1,28.4v23.1c0,2.3,1.1,5,6.2,5c4.9,0,5.9-2.7,5.9-5V78.3
			c0-11.5,5.7-18.6,14.9-18.6h0.2c1.3,0,2.6-0.5,3.6-1.5c0.9-0.9,1.4-2.1,1.4-3.4v0C408.2,52.1,406,49.9,403.4,49.9z"/>
		<path class="st0" d="M131.7,59.3c-8.5-3.6-15.9-6.8-15.9-13.6c0-6.3,5.5-10.3,14.1-10.3c4.6,0,8.6,1.2,13.4,4
			c0.5,0.3,1,0.6,1.4,0.8c1.5,0.9,2.4,1.5,3.5,1.5c2.9,0,5.3-3.3,5.3-6c0-2.4-2.1-4.1-4.5-5.6c-5.2-3.4-12.1-5.3-19.1-5.3
			c-15.5,0-25.9,8.7-25.9,21.6c0,13.6,11.8,18.7,22.2,23.1c9.1,3.9,17,7.3,17,15.2c0,7.2-6.3,12-15.6,12c-5.1,0-9.5-1.5-14.4-4.9
			L112,91c-1.8-1.2-2.8-1.9-4.3-1.9c-2.8,0-5.3,3.2-5.3,5.9c0,2,1.3,3.8,4.3,6c5.8,4.2,12.9,6.4,20.7,6.4c16.5,0,27.6-9.4,27.6-23.3
			C155,69.2,142.7,63.9,131.7,59.3z"/>
		<path class="st0" d="M177.4,82.2h26.9c4.3,0,8.8-0.9,8.8-7.9c0-14.3-9.7-24.4-23.5-24.4c-15.2,0-25,11.3-25,28.7
			c0,17.4,10.2,28.2,26.5,28.2c6.7,0,12.4-1.6,17-4.7c2.7-1.7,3.9-3.4,3.9-5.4c0-2.5-2-5.3-5.2-5.3c-1.4,0-2.7,0.8-4.4,2l-0.2,0.2
			c-2.9,1.9-6.4,2.9-10.6,2.9c-8.5,0-13.6-4.4-15.1-13.2c-0.1-0.3,0-0.6,0.2-0.8C176.9,82.3,177.1,82.2,177.4,82.2z M176.6,71.8
			c1.4-7.9,5.9-12.2,12.7-12.2c7,0,11.5,4.6,12.2,12.3c0,0.3-0.1,0.5-0.3,0.8c-0.2,0.2-0.4,0.3-0.7,0.3h-23c-0.3,0-0.6-0.1-0.7-0.3
			C176.6,72.4,176.5,72.1,176.6,71.8z"/>
		<path class="st0" d="M294.9,26.3c-4.3,0-7.4,3.1-7.4,7.3c0,4.3,3.1,7.4,7.4,7.4c4.3,0,7.4-3.1,7.4-7.4
			C302.3,29.4,299.2,26.3,294.9,26.3z"/>
		<path class="st0" d="M294.8,50.5c-4.8,0-5.7,2.7-5.7,5v45.9c0,2.3,1,5,6,5c4.8,0,5.7-2.7,5.7-5V55.5
			C300.8,53.2,299.7,50.5,294.8,50.5z"/>
		<path class="st0" d="M338.5,49.9c-16.5,0-27.1,11.3-27.1,28.7c0,17.3,10.6,28.5,26.9,28.5c16.6,0,27.2-11.3,27.2-28.7
			C365.5,61,354.9,49.9,338.5,49.9z M338.5,97.1c-9.1,0-15-7.4-15-18.7c0-11.5,5.7-18.6,14.9-18.6s14.9,7.2,14.9,18.9
			C353.3,90,347.6,97.1,338.5,97.1z"/>
	</g>
</g>
</svg>
